<svg width="105" height="24" viewBox="0 0 105 24" fill="none" xmlns="http://www.w3.org/2000/svg">
<path d="M3 10.5651C3 9.9907 3 9.70352 3.07403 9.43905C3.1396 9.20478 3.24737 8.98444 3.39203 8.78886C3.55534 8.56806 3.78202 8.39175 4.23539 8.03912L11.0177 2.764C11.369 2.49075 11.5447 2.35412 11.7387 2.3016C11.9098 2.25526 12.0902 2.25526 12.2613 2.3016C12.4553 2.35412 12.631 2.49075 12.9823 2.764L19.7646 8.03913C20.218 8.39175 20.4447 8.56806 20.608 8.78886C20.7526 8.98444 20.8604 9.20478 20.926 9.43905C21 9.70352 21 9.9907 21 10.5651V17.8C21 18.9201 21 19.4801 20.782 19.908C20.5903 20.2843 20.2843 20.5903 19.908 20.782C19.4802 21 18.9201 21 17.8 21H6.2C5.0799 21 4.51984 21 4.09202 20.782C3.71569 20.5903 3.40973 20.2843 3.21799 19.908C3 19.4801 3 18.9201 3 17.8V10.5651Z" fill="#E3FFC2"/>
<path d="M49.2539 15.248V19.8711H38.2324V15.248H49.2539ZM40.166 16.7246V18.3945H47.3555V16.7246H40.166ZM50.2207 5.38672V6.86328H37.248V5.38672H42.7852V3.99805H44.7363V5.38672H50.2207ZM43.752 7.35547C47.1445 7.35547 49.043 8.11133 49.043 9.60547C49.043 10.9502 47.5137 11.7061 44.7363 11.8379V12.7695H51.0117V14.3164H36.5273V12.7695H42.7852V11.8379C40.0254 11.7148 38.4785 10.9502 38.4785 9.60547C38.4785 8.11133 40.3945 7.35547 43.752 7.35547ZM43.752 8.67383C41.6426 8.69141 40.5703 8.95508 40.5703 9.60547C40.5703 10.2383 41.6426 10.5371 43.752 10.5371C45.8789 10.5371 46.9512 10.2383 46.9512 9.60547C46.9512 8.95508 45.8789 8.69141 43.752 8.67383Z" fill="#E3FFC2"/>
</svg>
